<?xml version="1.0" encoding="utf-8"?>
<!-- Generator: Adobe Illustrator 16.0.0, SVG Export Plug-In . SVG Version: 6.00 Build 0)  -->
<!DOCTYPE svg PUBLIC "-//W3C//DTD SVG 1.1//EN" "http://www.w3.org/Graphics/SVG/1.1/DTD/svg11.dtd">
<svg version="1.1" id="Calque_1" xmlns="http://www.w3.org/2000/svg" xmlns:xlink="http://www.w3.org/1999/xlink" x="0px" y="0px"
	 width="12.961px" height="21px" viewBox="0 0 12.961 21" enable-background="new 0 0 12.961 21" xml:space="preserve">
<path fill="#3D3B40" d="M12.819,4.979C12.12,1.676,8.917-0.427,5.412,0.073C1.207,0.674-1.197,5.08,0.605,8.884
	c1.502,3.104,3.004,6.308,4.605,9.412C5.61,19.197,6.111,20.1,6.513,21c0.101-0.1,0.101-0.201,0.2-0.301
	c1.901-3.905,3.805-7.91,5.706-11.815C12.92,7.583,13.122,6.281,12.819,4.979z M6.413,8.984c-1.401,0-2.503-1.102-2.503-2.503
	c0-1.402,1.102-2.503,2.503-2.503c1.401,0,2.504,1.102,2.504,2.503C8.917,7.883,7.814,8.984,6.413,8.984z"/>
</svg>
