<?xml version="1.0" encoding="utf-8"?>
<!-- Generator: Adobe Illustrator 16.0.0, SVG Export Plug-In . SVG Version: 6.00 Build 0)  -->
<!DOCTYPE svg PUBLIC "-//W3C//DTD SVG 1.1//EN" "http://www.w3.org/Graphics/SVG/1.1/DTD/svg11.dtd">
<svg version="1.1" id="Calque_1" xmlns="http://www.w3.org/2000/svg" xmlns:xlink="http://www.w3.org/1999/xlink" x="0px" y="0px"
	 width="20.905px" height="15px" viewBox="0 0 20.905 15" enable-background="new 0 0 20.905 15" xml:space="preserve">
<g>
	<path fill="#3D3B40" d="M10.751,10.201c-0.1,0-0.1,0.1-0.199,0.1c-0.499-0.402-0.896-0.699-1.394-1.1
		C6.172,6.801,3.188,4.5,0.2,2.099c-0.098,0-0.098-0.1-0.198-0.1v11.602c0.102,0.397,0.198,0.7,0.498,0.997
		C0.898,14.9,1.296,15,1.794,15c3.084,0,6.27,0,9.358,0c2.683,0,5.272,0,7.959,0c0.494,0,0.896-0.1,1.295-0.402
		c0.297-0.297,0.396-0.6,0.498-0.997V1.999c-0.801,0.602-1.494,1.201-2.293,1.799C16.124,5.899,13.438,8,10.751,10.201z"/>
	<path fill="#3D3B40" d="M21,0.699C20.602,0.201,20.104,0,19.508,0C13.537,0,7.568,0,1.694,0C1.496,0,1.396,0,1.196,0
		C0.798,0.099,0.4,0.299,0.103,0.599C3.583,3.4,7.07,6.1,10.551,8.898C14.035,6.2,17.52,3.5,21,0.699z"/>
</g>
</svg>
